<svg xmlns="http://www.w3.org/2000/svg" width="64" height="64" viewBox="0 0 64 64" role="img" aria-labelledby="title desc">
  <title id="title">Logprob Visualizer favicon</title>
  <desc id="desc">Rounded square with probability bars transitioning from low to high and an accent probability curve</desc>
  <defs>
    <linearGradient id="bg" x1="0%" x2="100%" y1="100%" y2="0%">
      <stop offset="0%" stop-color="#0f291c" />
      <stop offset="100%" stop-color="#153524" />
    </linearGradient>
    <filter id="shadow" x="-15%" y="-15%" width="130%" height="130%">
      <feDropShadow dx="0" dy="2" stdDeviation="2" flood-color="#05100a" flood-opacity="0.35" />
    </filter>
  </defs>
  <rect x="4" y="4" width="56" height="56" rx="14" fill="url(#bg)" />
  <g transform="translate(12 14)">
    <rect x="4" y="18" width="8" height="22" rx="3" fill="#e04848" />
    <rect x="17" y="12" width="8" height="28" rx="3" fill="#ffc95c" />
    <rect x="30" y="8" width="8" height="32" rx="3" fill="#abd382" />
    <rect x="43" y="4" width="8" height="36" rx="3" fill="#1ba74a" />
    <path d="M4 28 C13 20.5 22 14 34 9 C40.5 6 47.5 5 51 4" fill="none" stroke="#7a7ddc" stroke-width="3" stroke-linecap="round" />
    <circle cx="4" cy="28" r="3" fill="#7a7ddc" filter="url(#shadow)" />
    <circle cx="22" cy="16" r="3" fill="#7a7ddc" filter="url(#shadow)" />
    <circle cx="40" cy="8" r="3" fill="#7a7ddc" filter="url(#shadow)" />
    <circle cx="51" cy="4" r="3" fill="#7a7ddc" filter="url(#shadow)" />
  </g>
</svg>
